<?xml version="1.0" standalone="no"?><!-- Generator: Gravit.io --><svg xmlns="http://www.w3.org/2000/svg" xmlns:xlink="http://www.w3.org/1999/xlink" style="isolation:isolate" viewBox="0 0 70 70" width="70" height="70"><defs><clipPath id="_clipPath_Ao2MNqf37X5IwWrkAey7wpznHPT13lJX"><rect width="70" height="70"/></clipPath></defs><g clip-path="url(#_clipPath_Ao2MNqf37X5IwWrkAey7wpznHPT13lJX)"><path d=" M 19.569 35.025 L 17.684 42.824 L 21.431 42.824 L 19.612 35.025 L 19.569 35.025 Z " fill="rgb(247,152,31)"/><path d=" M 1.181 43.513 L 1.181 44.648 C 1.181 50.292 7.282 56 14.802 56 L 54.913 56 C 62.433 56 68.534 50.29 68.534 44.648 L 68.534 43.513 C 68.534 38.267 63.253 31.679 56.464 31.099 C 56.313 26.409 52.472 22.654 47.749 22.654 C 45.915 22.654 44.214 23.223 42.81 24.188 C 40.117 18.188 34.105 14 27.101 14 C 17.592 14 9.884 21.706 9.884 31.219 C 9.884 31.389 9.905 31.551 9.91 31.718 C 4.809 33.196 1.181 39.168 1.181 43.513 Z  M 22.827 48.72 L 21.852 44.842 L 17.221 44.842 L 16.2 48.72 L 13.563 48.72 L 18.061 32.898 L 21.296 32.898 L 25.462 48.72 L 22.827 48.72 Z  M 38.187 48.72 L 35.262 48.72 L 33.224 36.799 L 33.18 36.799 L 31.163 48.72 L 28.238 48.72 L 25.179 32.898 L 27.729 32.898 L 29.81 45.195 L 29.856 45.195 L 31.937 32.898 L 34.598 32.898 L 36.725 45.262 L 36.769 45.262 L 38.83 32.898 L 41.334 32.898 L 38.187 48.72 Z  M 47.448 49.029 C 43.526 49.029 42.639 46.416 42.639 44.198 L 42.639 43.822 L 45.165 43.822 L 45.165 44.22 C 45.165 46.148 46.007 47.123 47.758 47.123 C 49.353 47.123 50.149 45.991 50.149 44.815 C 50.149 43.153 49.309 42.422 47.891 42.003 L 46.161 41.403 C 43.855 40.517 42.859 39.322 42.859 37.062 C 42.859 34.179 44.809 32.584 47.778 32.584 C 51.833 32.584 52.254 35.11 52.254 36.748 L 52.254 37.104 L 49.728 37.104 L 49.728 36.772 C 49.728 35.33 49.086 34.488 47.512 34.488 C 46.427 34.488 45.385 35.088 45.385 36.772 C 45.385 38.123 46.072 38.809 47.758 39.451 L 49.462 40.073 C 51.7 40.869 52.677 42.091 52.677 44.261 C 52.679 47.634 50.638 49.029 47.448 49.029 Z " fill="rgb(247,152,31)"/><path d=" M 18.061 32.898 L 13.563 48.72 L 16.2 48.72 L 17.221 44.842 L 21.852 44.842 L 22.827 48.72 L 25.463 48.72 L 21.298 32.898 L 18.061 32.898 Z  M 17.684 42.824 L 19.568 35.025 L 19.61 35.025 L 21.427 42.824 L 17.684 42.824 Z " fill="rgb(255,255,255)"/><path d=" M 36.769 45.262 L 36.723 45.262 L 34.596 32.898 L 31.937 32.898 L 29.856 45.194 L 29.81 45.194 L 27.729 32.898 L 25.179 32.898 L 28.238 48.72 L 31.163 48.72 L 33.178 36.799 L 33.224 36.799 L 35.262 48.72 L 38.187 48.72 L 41.332 32.898 L 38.83 32.898 L 36.769 45.262 Z " fill="rgb(255,255,255)"/><path d=" M 49.464 40.078 L 47.76 39.456 C 46.076 38.814 45.387 38.129 45.387 36.777 C 45.387 35.093 46.428 34.493 47.514 34.493 C 49.087 34.493 49.73 35.335 49.73 36.777 L 49.73 37.109 L 52.256 37.109 L 52.256 36.753 C 52.256 35.115 51.835 32.589 47.78 32.589 C 44.811 32.589 42.861 34.184 42.861 37.067 C 42.861 39.327 43.856 40.522 46.163 41.408 L 47.893 42.008 C 49.311 42.427 50.151 43.16 50.151 44.82 C 50.151 45.995 49.353 47.128 47.76 47.128 C 46.009 47.128 45.167 46.153 45.167 44.225 L 45.167 43.827 L 42.641 43.827 L 42.641 44.203 C 42.641 46.421 43.529 49.034 47.449 49.034 C 50.64 49.034 52.679 47.64 52.679 44.27 C 52.679 42.095 51.702 40.873 49.464 40.078 Z " fill="rgb(255,255,255)"/></g></svg>